<svg width="138" height="33" viewBox="0 0 138 33" fill="none" xmlns="http://www.w3.org/2000/svg">
<g id="Group 3466230">
<g id="Group 3466157">
<g id="UNDRDG.">
<mask id="path-1-outside-1_1374_3712" maskUnits="userSpaceOnUse" x="0" y="0" width="138" height="18" fill="black">
<rect fill="white" width="138" height="18"/>
<path d="M20.023 1.3303V9.25743C20.023 10.1933 20.0093 11.0465 19.982 11.8172C19.9615 12.5879 19.8829 13.2795 19.7463 13.8919C19.6164 14.5043 19.408 15.0376 19.121 15.4918C18.834 15.9459 18.4241 16.3244 17.8911 16.6272C17.3581 16.9231 16.6782 17.1433 15.8515 17.2878C15.0315 17.4392 14.0202 17.5149 12.8176 17.5149H8.20537C7.00276 17.5149 5.98807 17.4392 5.16128 17.2878C4.34132 17.1433 3.66486 16.9231 3.13189 16.6272C2.59891 16.3244 2.18552 15.9459 1.8917 15.4918C1.60472 15.0376 1.3929 14.5043 1.25624 13.8919C1.12641 13.2795 1.05125 12.5879 1.03075 11.8172C1.01025 11.0465 1 10.1933 1 9.25743V1.3303H2.9679V9.25743C2.9679 10.2483 2.97473 11.1016 2.98839 11.8172C3.00889 12.526 3.06697 13.1247 3.16263 13.6132C3.2583 14.1018 3.40862 14.494 3.61361 14.7899C3.82543 15.0858 4.12608 15.3129 4.51556 15.4711C4.90504 15.6294 5.39702 15.7361 5.99148 15.7911C6.59278 15.8393 7.33075 15.8634 8.20537 15.8634H12.8176C13.6854 15.8634 14.42 15.8393 15.0213 15.7911C15.6226 15.7361 16.1145 15.6294 16.4972 15.4711C16.8867 15.3129 17.1873 15.0858 17.3991 14.7899C17.6109 14.494 17.7647 14.1018 17.8604 13.6132C17.9628 13.1247 18.0209 12.526 18.0346 11.8172C18.0483 11.1016 18.0551 10.2483 18.0551 9.25743L18.0448 1.3303H20.023Z"/>
<path d="M25.281 17.1846H23.3131V1.3303H26.7671L41.1984 15.2028V1.3303H43.1663V17.1846H40.5424L25.281 2.98178V17.1846Z"/>
<path d="M58.9094 15.5331C59.7772 15.5331 60.5117 15.509 61.113 15.4608C61.7143 15.4126 62.2097 15.3163 62.5992 15.1718C62.9887 15.0204 63.2893 14.8037 63.5012 14.5215C63.713 14.2394 63.8667 13.8678 63.9624 13.4068C64.0649 12.9389 64.123 12.3677 64.1366 11.6934C64.1571 11.0121 64.1674 10.2001 64.1674 9.25743C64.1674 8.3147 64.1571 7.50616 64.1366 6.83181C64.123 6.15057 64.0649 5.57943 63.9624 5.11839C63.8667 4.65047 63.713 4.27545 63.5012 3.99332C63.2893 3.71119 62.9887 3.49787 62.5992 3.35337C62.2097 3.20198 61.7143 3.1022 61.113 3.05403C60.5186 3.00587 59.784 2.98178 58.9094 2.98178H49.0802V15.5331H58.9094ZM47.1123 17.1846V1.3303H58.9094C60.112 1.3303 61.1233 1.40255 61.9432 1.54705C62.77 1.68468 63.4499 1.89799 63.9829 2.187C64.5227 2.47601 64.9361 2.83728 65.2231 3.27079C65.5169 3.70431 65.7287 4.21696 65.8585 4.80874C65.9952 5.39364 66.0738 6.05767 66.0943 6.80084C66.1216 7.53713 66.1353 8.35599 66.1353 9.25743C66.1353 10.1589 66.1216 10.9812 66.0943 11.7243C66.0738 12.4606 65.9952 13.1247 65.8585 13.7164C65.7287 14.3013 65.5169 14.8105 65.2231 15.2441C64.9361 15.6776 64.5227 16.0388 63.9829 16.3278C63.4499 16.6169 62.77 16.8336 61.9432 16.9781C61.1233 17.1157 60.112 17.1846 58.9094 17.1846H47.1123Z"/>
<path d="M87.4541 17.1846H85.4862V14.2119C85.4862 13.7302 85.476 13.3173 85.4555 12.9733C85.4418 12.6223 85.3838 12.323 85.2813 12.0753C85.1856 11.8275 85.0319 11.628 84.82 11.4766C84.6082 11.3252 84.3076 11.2082 83.9181 11.1257C83.5286 11.0431 83.0332 10.988 82.4319 10.9605C81.8374 10.9261 81.1029 10.9089 80.2283 10.9089H71.383V17.1846H69.4151V1.3303H80.5563C81.7589 1.3303 82.7701 1.37502 83.5901 1.46448C84.4169 1.54705 85.0968 1.67436 85.6297 1.84639C86.1695 2.01842 86.5829 2.23173 86.8699 2.48634C87.1637 2.74094 87.3756 3.04027 87.5054 3.38433C87.642 3.72839 87.7206 4.11374 87.7411 4.54037C87.7685 4.967 87.7821 5.43837 87.7821 5.95445C87.7821 6.61505 87.7343 7.19651 87.6386 7.69884C87.5498 8.19428 87.3961 8.61747 87.1774 8.96842C86.9587 9.31936 86.6684 9.60148 86.3062 9.8148C85.9441 10.0212 85.4897 10.1657 84.943 10.2483C85.4897 10.3309 85.927 10.4754 86.255 10.6818C86.5829 10.8883 86.8358 11.1566 87.0134 11.4869C87.1911 11.8172 87.3072 12.2095 87.3619 12.6636C87.4234 13.1178 87.4541 13.6339 87.4541 14.2119V17.1846ZM71.383 9.25743H80.5563C81.4309 9.25743 82.1654 9.24366 82.7599 9.21614C83.3612 9.18173 83.8566 9.12324 84.2461 9.04067C84.6355 8.95809 84.9362 8.84111 85.148 8.68973C85.3598 8.53834 85.5136 8.33879 85.6092 8.09106C85.7117 7.84334 85.7698 7.54745 85.7835 7.20339C85.804 6.85245 85.8142 6.43614 85.8142 5.95445C85.8142 5.50718 85.804 5.12183 85.7835 4.79842C85.7698 4.475 85.7117 4.20319 85.6092 3.98299C85.5136 3.7628 85.3598 3.58733 85.148 3.45658C84.9362 3.32584 84.6355 3.22606 84.2461 3.15725C83.8566 3.08156 83.3612 3.03339 82.7599 3.01275C82.1654 2.9921 81.4309 2.98178 80.5563 2.98178H71.383V9.25743Z"/>
<path d="M102.859 15.5331C103.727 15.5331 104.461 15.509 105.063 15.4608C105.664 15.4126 106.159 15.3163 106.549 15.1718C106.938 15.0204 107.239 14.8037 107.451 14.5215C107.663 14.2394 107.816 13.8678 107.912 13.4068C108.015 12.9389 108.073 12.3677 108.086 11.6934C108.107 11.0121 108.117 10.2001 108.117 9.25743C108.117 8.3147 108.107 7.50616 108.086 6.83181C108.073 6.15057 108.015 5.57943 107.912 5.11839C107.816 4.65047 107.663 4.27545 107.451 3.99332C107.239 3.71119 106.938 3.49787 106.549 3.35337C106.159 3.20198 105.664 3.1022 105.063 3.05403C104.468 3.00587 103.734 2.98178 102.859 2.98178H93.0298V15.5331H102.859ZM91.0619 17.1846V1.3303H102.859C104.062 1.3303 105.073 1.40255 105.893 1.54705C106.72 1.68468 107.4 1.89799 107.933 2.187C108.472 2.47601 108.886 2.83728 109.173 3.27079C109.467 3.70431 109.678 4.21696 109.808 4.80874C109.945 5.39364 110.023 6.05767 110.044 6.80084C110.071 7.53713 110.085 8.35599 110.085 9.25743C110.085 10.1589 110.071 10.9812 110.044 11.7243C110.023 12.4606 109.945 13.1247 109.808 13.7164C109.678 14.3013 109.467 14.8105 109.173 15.2441C108.886 15.6776 108.472 16.0388 107.933 16.3278C107.4 16.6169 106.72 16.8336 105.893 16.9781C105.073 17.1157 104.062 17.1846 102.859 17.1846H91.0619Z"/>
<path d="M130.43 6.28475C130.43 5.45901 130.341 4.8053 130.164 4.32361C129.986 3.84193 129.692 3.47723 129.282 3.2295C128.872 2.98178 128.332 2.82351 127.663 2.7547C126.993 2.68589 126.166 2.65149 125.182 2.65149H119.914C119.04 2.65149 118.302 2.67901 117.7 2.73406C117.106 2.78223 116.614 2.88545 116.224 3.04371C115.835 3.20198 115.534 3.42906 115.322 3.72495C115.111 4.02084 114.957 4.41307 114.861 4.90163C114.766 5.3902 114.711 5.9923 114.697 6.70795C114.684 7.41671 114.677 8.26653 114.677 9.25743C114.677 10.2483 114.684 11.1016 114.697 11.8172C114.718 12.526 114.776 13.1247 114.871 13.6132C114.967 14.1018 115.117 14.494 115.322 14.7899C115.534 15.0858 115.835 15.3129 116.224 15.4711C116.614 15.6294 117.106 15.7361 117.7 15.7911C118.302 15.8393 119.04 15.8634 119.914 15.8634H125.193C125.958 15.8634 126.617 15.8427 127.171 15.8014C127.724 15.7601 128.196 15.6845 128.585 15.5744C128.975 15.4643 129.289 15.3129 129.528 15.1202C129.767 14.9275 129.952 14.6867 130.082 14.3977C130.218 14.1018 130.311 13.7508 130.358 13.3449C130.406 12.932 130.43 12.4503 130.43 11.8998V10.9089H122.538V9.25743H132.398V11.8998C132.398 12.5604 132.357 13.1591 132.275 13.6958C132.193 14.2256 132.046 14.7004 131.834 15.1202C131.629 15.5331 131.353 15.8909 131.004 16.1937C130.656 16.4964 130.215 16.7476 129.682 16.9472C129.149 17.1398 128.513 17.2809 127.775 17.3703C127.038 17.4667 126.177 17.5149 125.193 17.5149H119.914C118.712 17.5149 117.697 17.4392 116.87 17.2878C116.05 17.1433 115.374 16.9231 114.841 16.6272C114.308 16.3244 113.894 15.9459 113.6 15.4918C113.314 15.0376 113.102 14.5043 112.965 13.8919C112.835 13.2795 112.76 12.5879 112.74 11.8172C112.719 11.0465 112.709 10.1933 112.709 9.25743C112.709 8.32158 112.719 7.46832 112.74 6.69762C112.76 5.92693 112.835 5.23537 112.965 4.62295C113.102 4.01052 113.314 3.47723 113.6 3.02307C113.894 2.56891 114.308 2.19389 114.841 1.89799C115.374 1.59522 116.05 1.37158 116.87 1.22708C117.697 1.07569 118.712 1 119.914 1H125.182C126.166 1 127.027 1.04817 127.765 1.1445C128.503 1.23396 129.139 1.37502 129.672 1.5677C130.205 1.75349 130.645 1.99089 130.994 2.2799C131.349 2.56891 131.629 2.90953 131.834 3.30176C132.046 3.69398 132.193 4.13782 132.275 4.63327C132.357 5.12871 132.398 5.67921 132.398 6.28475H130.43Z"/>
<path d="M137 17.1846H135.032V15.2028H137V17.1846Z"/>
</mask>
<path d="M20.023 1.3303V9.25743C20.023 10.1933 20.0093 11.0465 19.982 11.8172C19.9615 12.5879 19.8829 13.2795 19.7463 13.8919C19.6164 14.5043 19.408 15.0376 19.121 15.4918C18.834 15.9459 18.4241 16.3244 17.8911 16.6272C17.3581 16.9231 16.6782 17.1433 15.8515 17.2878C15.0315 17.4392 14.0202 17.5149 12.8176 17.5149H8.20537C7.00276 17.5149 5.98807 17.4392 5.16128 17.2878C4.34132 17.1433 3.66486 16.9231 3.13189 16.6272C2.59891 16.3244 2.18552 15.9459 1.8917 15.4918C1.60472 15.0376 1.3929 14.5043 1.25624 13.8919C1.12641 13.2795 1.05125 12.5879 1.03075 11.8172C1.01025 11.0465 1 10.1933 1 9.25743V1.3303H2.9679V9.25743C2.9679 10.2483 2.97473 11.1016 2.98839 11.8172C3.00889 12.526 3.06697 13.1247 3.16263 13.6132C3.2583 14.1018 3.40862 14.494 3.61361 14.7899C3.82543 15.0858 4.12608 15.3129 4.51556 15.4711C4.90504 15.6294 5.39702 15.7361 5.99148 15.7911C6.59278 15.8393 7.33075 15.8634 8.20537 15.8634H12.8176C13.6854 15.8634 14.42 15.8393 15.0213 15.7911C15.6226 15.7361 16.1145 15.6294 16.4972 15.4711C16.8867 15.3129 17.1873 15.0858 17.3991 14.7899C17.6109 14.494 17.7647 14.1018 17.8604 13.6132C17.9628 13.1247 18.0209 12.526 18.0346 11.8172C18.0483 11.1016 18.0551 10.2483 18.0551 9.25743L18.0448 1.3303H20.023Z" fill="white"/>
<path d="M25.281 17.1846H23.3131V1.3303H26.7671L41.1984 15.2028V1.3303H43.1663V17.1846H40.5424L25.281 2.98178V17.1846Z" fill="white"/>
<path d="M58.9094 15.5331C59.7772 15.5331 60.5117 15.509 61.113 15.4608C61.7143 15.4126 62.2097 15.3163 62.5992 15.1718C62.9887 15.0204 63.2893 14.8037 63.5012 14.5215C63.713 14.2394 63.8667 13.8678 63.9624 13.4068C64.0649 12.9389 64.123 12.3677 64.1366 11.6934C64.1571 11.0121 64.1674 10.2001 64.1674 9.25743C64.1674 8.3147 64.1571 7.50616 64.1366 6.83181C64.123 6.15057 64.0649 5.57943 63.9624 5.11839C63.8667 4.65047 63.713 4.27545 63.5012 3.99332C63.2893 3.71119 62.9887 3.49787 62.5992 3.35337C62.2097 3.20198 61.7143 3.1022 61.113 3.05403C60.5186 3.00587 59.784 2.98178 58.9094 2.98178H49.0802V15.5331H58.9094ZM47.1123 17.1846V1.3303H58.9094C60.112 1.3303 61.1233 1.40255 61.9432 1.54705C62.77 1.68468 63.4499 1.89799 63.9829 2.187C64.5227 2.47601 64.9361 2.83728 65.2231 3.27079C65.5169 3.70431 65.7287 4.21696 65.8585 4.80874C65.9952 5.39364 66.0738 6.05767 66.0943 6.80084C66.1216 7.53713 66.1353 8.35599 66.1353 9.25743C66.1353 10.1589 66.1216 10.9812 66.0943 11.7243C66.0738 12.4606 65.9952 13.1247 65.8585 13.7164C65.7287 14.3013 65.5169 14.8105 65.2231 15.2441C64.9361 15.6776 64.5227 16.0388 63.9829 16.3278C63.4499 16.6169 62.77 16.8336 61.9432 16.9781C61.1233 17.1157 60.112 17.1846 58.9094 17.1846H47.1123Z" fill="white"/>
<path d="M87.4541 17.1846H85.4862V14.2119C85.4862 13.7302 85.476 13.3173 85.4555 12.9733C85.4418 12.6223 85.3838 12.323 85.2813 12.0753C85.1856 11.8275 85.0319 11.628 84.82 11.4766C84.6082 11.3252 84.3076 11.2082 83.9181 11.1257C83.5286 11.0431 83.0332 10.988 82.4319 10.9605C81.8374 10.9261 81.1029 10.9089 80.2283 10.9089H71.383V17.1846H69.4151V1.3303H80.5563C81.7589 1.3303 82.7701 1.37502 83.5901 1.46448C84.4169 1.54705 85.0968 1.67436 85.6297 1.84639C86.1695 2.01842 86.5829 2.23173 86.8699 2.48634C87.1637 2.74094 87.3756 3.04027 87.5054 3.38433C87.642 3.72839 87.7206 4.11374 87.7411 4.54037C87.7685 4.967 87.7821 5.43837 87.7821 5.95445C87.7821 6.61505 87.7343 7.19651 87.6386 7.69884C87.5498 8.19428 87.3961 8.61747 87.1774 8.96842C86.9587 9.31936 86.6684 9.60148 86.3062 9.8148C85.9441 10.0212 85.4897 10.1657 84.943 10.2483C85.4897 10.3309 85.927 10.4754 86.255 10.6818C86.5829 10.8883 86.8358 11.1566 87.0134 11.4869C87.1911 11.8172 87.3072 12.2095 87.3619 12.6636C87.4234 13.1178 87.4541 13.6339 87.4541 14.2119V17.1846ZM71.383 9.25743H80.5563C81.4309 9.25743 82.1654 9.24366 82.7599 9.21614C83.3612 9.18173 83.8566 9.12324 84.2461 9.04067C84.6355 8.95809 84.9362 8.84111 85.148 8.68973C85.3598 8.53834 85.5136 8.33879 85.6092 8.09106C85.7117 7.84334 85.7698 7.54745 85.7835 7.20339C85.804 6.85245 85.8142 6.43614 85.8142 5.95445C85.8142 5.50718 85.804 5.12183 85.7835 4.79842C85.7698 4.475 85.7117 4.20319 85.6092 3.98299C85.5136 3.7628 85.3598 3.58733 85.148 3.45658C84.9362 3.32584 84.6355 3.22606 84.2461 3.15725C83.8566 3.08156 83.3612 3.03339 82.7599 3.01275C82.1654 2.9921 81.4309 2.98178 80.5563 2.98178H71.383V9.25743Z" fill="white"/>
<path d="M102.859 15.5331C103.727 15.5331 104.461 15.509 105.063 15.4608C105.664 15.4126 106.159 15.3163 106.549 15.1718C106.938 15.0204 107.239 14.8037 107.451 14.5215C107.663 14.2394 107.816 13.8678 107.912 13.4068C108.015 12.9389 108.073 12.3677 108.086 11.6934C108.107 11.0121 108.117 10.2001 108.117 9.25743C108.117 8.3147 108.107 7.50616 108.086 6.83181C108.073 6.15057 108.015 5.57943 107.912 5.11839C107.816 4.65047 107.663 4.27545 107.451 3.99332C107.239 3.71119 106.938 3.49787 106.549 3.35337C106.159 3.20198 105.664 3.1022 105.063 3.05403C104.468 3.00587 103.734 2.98178 102.859 2.98178H93.0298V15.5331H102.859ZM91.0619 17.1846V1.3303H102.859C104.062 1.3303 105.073 1.40255 105.893 1.54705C106.72 1.68468 107.4 1.89799 107.933 2.187C108.472 2.47601 108.886 2.83728 109.173 3.27079C109.467 3.70431 109.678 4.21696 109.808 4.80874C109.945 5.39364 110.023 6.05767 110.044 6.80084C110.071 7.53713 110.085 8.35599 110.085 9.25743C110.085 10.1589 110.071 10.9812 110.044 11.7243C110.023 12.4606 109.945 13.1247 109.808 13.7164C109.678 14.3013 109.467 14.8105 109.173 15.2441C108.886 15.6776 108.472 16.0388 107.933 16.3278C107.4 16.6169 106.72 16.8336 105.893 16.9781C105.073 17.1157 104.062 17.1846 102.859 17.1846H91.0619Z" fill="white"/>
<path d="M130.43 6.28475C130.43 5.45901 130.341 4.8053 130.164 4.32361C129.986 3.84193 129.692 3.47723 129.282 3.2295C128.872 2.98178 128.332 2.82351 127.663 2.7547C126.993 2.68589 126.166 2.65149 125.182 2.65149H119.914C119.04 2.65149 118.302 2.67901 117.7 2.73406C117.106 2.78223 116.614 2.88545 116.224 3.04371C115.835 3.20198 115.534 3.42906 115.322 3.72495C115.111 4.02084 114.957 4.41307 114.861 4.90163C114.766 5.3902 114.711 5.9923 114.697 6.70795C114.684 7.41671 114.677 8.26653 114.677 9.25743C114.677 10.2483 114.684 11.1016 114.697 11.8172C114.718 12.526 114.776 13.1247 114.871 13.6132C114.967 14.1018 115.117 14.494 115.322 14.7899C115.534 15.0858 115.835 15.3129 116.224 15.4711C116.614 15.6294 117.106 15.7361 117.7 15.7911C118.302 15.8393 119.04 15.8634 119.914 15.8634H125.193C125.958 15.8634 126.617 15.8427 127.171 15.8014C127.724 15.7601 128.196 15.6845 128.585 15.5744C128.975 15.4643 129.289 15.3129 129.528 15.1202C129.767 14.9275 129.952 14.6867 130.082 14.3977C130.218 14.1018 130.311 13.7508 130.358 13.3449C130.406 12.932 130.43 12.4503 130.43 11.8998V10.9089H122.538V9.25743H132.398V11.8998C132.398 12.5604 132.357 13.1591 132.275 13.6958C132.193 14.2256 132.046 14.7004 131.834 15.1202C131.629 15.5331 131.353 15.8909 131.004 16.1937C130.656 16.4964 130.215 16.7476 129.682 16.9472C129.149 17.1398 128.513 17.2809 127.775 17.3703C127.038 17.4667 126.177 17.5149 125.193 17.5149H119.914C118.712 17.5149 117.697 17.4392 116.87 17.2878C116.05 17.1433 115.374 16.9231 114.841 16.6272C114.308 16.3244 113.894 15.9459 113.6 15.4918C113.314 15.0376 113.102 14.5043 112.965 13.8919C112.835 13.2795 112.76 12.5879 112.74 11.8172C112.719 11.0465 112.709 10.1933 112.709 9.25743C112.709 8.32158 112.719 7.46832 112.74 6.69762C112.76 5.92693 112.835 5.23537 112.965 4.62295C113.102 4.01052 113.314 3.47723 113.6 3.02307C113.894 2.56891 114.308 2.19389 114.841 1.89799C115.374 1.59522 116.05 1.37158 116.87 1.22708C117.697 1.07569 118.712 1 119.914 1H125.182C126.166 1 127.027 1.04817 127.765 1.1445C128.503 1.23396 129.139 1.37502 129.672 1.5677C130.205 1.75349 130.645 1.99089 130.994 2.2799C131.349 2.56891 131.629 2.90953 131.834 3.30176C132.046 3.69398 132.193 4.13782 132.275 4.63327C132.357 5.12871 132.398 5.67921 132.398 6.28475H130.43Z" fill="white"/>
<path d="M137 17.1846H135.032V15.2028H137V17.1846Z" fill="white"/>
<path d="M20.023 1.3303V9.25743C20.023 10.1933 20.0093 11.0465 19.982 11.8172C19.9615 12.5879 19.8829 13.2795 19.7463 13.8919C19.6164 14.5043 19.408 15.0376 19.121 15.4918C18.834 15.9459 18.4241 16.3244 17.8911 16.6272C17.3581 16.9231 16.6782 17.1433 15.8515 17.2878C15.0315 17.4392 14.0202 17.5149 12.8176 17.5149H8.20537C7.00276 17.5149 5.98807 17.4392 5.16128 17.2878C4.34132 17.1433 3.66486 16.9231 3.13189 16.6272C2.59891 16.3244 2.18552 15.9459 1.8917 15.4918C1.60472 15.0376 1.3929 14.5043 1.25624 13.8919C1.12641 13.2795 1.05125 12.5879 1.03075 11.8172C1.01025 11.0465 1 10.1933 1 9.25743V1.3303H2.9679V9.25743C2.9679 10.2483 2.97473 11.1016 2.98839 11.8172C3.00889 12.526 3.06697 13.1247 3.16263 13.6132C3.2583 14.1018 3.40862 14.494 3.61361 14.7899C3.82543 15.0858 4.12608 15.3129 4.51556 15.4711C4.90504 15.6294 5.39702 15.7361 5.99148 15.7911C6.59278 15.8393 7.33075 15.8634 8.20537 15.8634H12.8176C13.6854 15.8634 14.42 15.8393 15.0213 15.7911C15.6226 15.7361 16.1145 15.6294 16.4972 15.4711C16.8867 15.3129 17.1873 15.0858 17.3991 14.7899C17.6109 14.494 17.7647 14.1018 17.8604 13.6132C17.9628 13.1247 18.0209 12.526 18.0346 11.8172C18.0483 11.1016 18.0551 10.2483 18.0551 9.25743L18.0448 1.3303H20.023Z" stroke="white" stroke-width="0.6" mask="url(#path-1-outside-1_1374_3712)"/>
<path d="M25.281 17.1846H23.3131V1.3303H26.7671L41.1984 15.2028V1.3303H43.1663V17.1846H40.5424L25.281 2.98178V17.1846Z" stroke="white" stroke-width="0.6" mask="url(#path-1-outside-1_1374_3712)"/>
<path d="M58.9094 15.5331C59.7772 15.5331 60.5117 15.509 61.113 15.4608C61.7143 15.4126 62.2097 15.3163 62.5992 15.1718C62.9887 15.0204 63.2893 14.8037 63.5012 14.5215C63.713 14.2394 63.8667 13.8678 63.9624 13.4068C64.0649 12.9389 64.123 12.3677 64.1366 11.6934C64.1571 11.0121 64.1674 10.2001 64.1674 9.25743C64.1674 8.3147 64.1571 7.50616 64.1366 6.83181C64.123 6.15057 64.0649 5.57943 63.9624 5.11839C63.8667 4.65047 63.713 4.27545 63.5012 3.99332C63.2893 3.71119 62.9887 3.49787 62.5992 3.35337C62.2097 3.20198 61.7143 3.1022 61.113 3.05403C60.5186 3.00587 59.784 2.98178 58.9094 2.98178H49.0802V15.5331H58.9094ZM47.1123 17.1846V1.3303H58.9094C60.112 1.3303 61.1233 1.40255 61.9432 1.54705C62.77 1.68468 63.4499 1.89799 63.9829 2.187C64.5227 2.47601 64.9361 2.83728 65.2231 3.27079C65.5169 3.70431 65.7287 4.21696 65.8585 4.80874C65.9952 5.39364 66.0738 6.05767 66.0943 6.80084C66.1216 7.53713 66.1353 8.35599 66.1353 9.25743C66.1353 10.1589 66.1216 10.9812 66.0943 11.7243C66.0738 12.4606 65.9952 13.1247 65.8585 13.7164C65.7287 14.3013 65.5169 14.8105 65.2231 15.2441C64.9361 15.6776 64.5227 16.0388 63.9829 16.3278C63.4499 16.6169 62.77 16.8336 61.9432 16.9781C61.1233 17.1157 60.112 17.1846 58.9094 17.1846H47.1123Z" stroke="white" stroke-width="0.6" mask="url(#path-1-outside-1_1374_3712)"/>
<path d="M87.4541 17.1846H85.4862V14.2119C85.4862 13.7302 85.476 13.3173 85.4555 12.9733C85.4418 12.6223 85.3838 12.323 85.2813 12.0753C85.1856 11.8275 85.0319 11.628 84.82 11.4766C84.6082 11.3252 84.3076 11.2082 83.9181 11.1257C83.5286 11.0431 83.0332 10.988 82.4319 10.9605C81.8374 10.9261 81.1029 10.9089 80.2283 10.9089H71.383V17.1846H69.4151V1.3303H80.5563C81.7589 1.3303 82.7701 1.37502 83.5901 1.46448C84.4169 1.54705 85.0968 1.67436 85.6297 1.84639C86.1695 2.01842 86.5829 2.23173 86.8699 2.48634C87.1637 2.74094 87.3756 3.04027 87.5054 3.38433C87.642 3.72839 87.7206 4.11374 87.7411 4.54037C87.7685 4.967 87.7821 5.43837 87.7821 5.95445C87.7821 6.61505 87.7343 7.19651 87.6386 7.69884C87.5498 8.19428 87.3961 8.61747 87.1774 8.96842C86.9587 9.31936 86.6684 9.60148 86.3062 9.8148C85.9441 10.0212 85.4897 10.1657 84.943 10.2483C85.4897 10.3309 85.927 10.4754 86.255 10.6818C86.5829 10.8883 86.8358 11.1566 87.0134 11.4869C87.1911 11.8172 87.3072 12.2095 87.3619 12.6636C87.4234 13.1178 87.4541 13.6339 87.4541 14.2119V17.1846ZM71.383 9.25743H80.5563C81.4309 9.25743 82.1654 9.24366 82.7599 9.21614C83.3612 9.18173 83.8566 9.12324 84.2461 9.04067C84.6355 8.95809 84.9362 8.84111 85.148 8.68973C85.3598 8.53834 85.5136 8.33879 85.6092 8.09106C85.7117 7.84334 85.7698 7.54745 85.7835 7.20339C85.804 6.85245 85.8142 6.43614 85.8142 5.95445C85.8142 5.50718 85.804 5.12183 85.7835 4.79842C85.7698 4.475 85.7117 4.20319 85.6092 3.98299C85.5136 3.7628 85.3598 3.58733 85.148 3.45658C84.9362 3.32584 84.6355 3.22606 84.2461 3.15725C83.8566 3.08156 83.3612 3.03339 82.7599 3.01275C82.1654 2.9921 81.4309 2.98178 80.5563 2.98178H71.383V9.25743Z" stroke="white" stroke-width="0.6" mask="url(#path-1-outside-1_1374_3712)"/>
<path d="M102.859 15.5331C103.727 15.5331 104.461 15.509 105.063 15.4608C105.664 15.4126 106.159 15.3163 106.549 15.1718C106.938 15.0204 107.239 14.8037 107.451 14.5215C107.663 14.2394 107.816 13.8678 107.912 13.4068C108.015 12.9389 108.073 12.3677 108.086 11.6934C108.107 11.0121 108.117 10.2001 108.117 9.25743C108.117 8.3147 108.107 7.50616 108.086 6.83181C108.073 6.15057 108.015 5.57943 107.912 5.11839C107.816 4.65047 107.663 4.27545 107.451 3.99332C107.239 3.71119 106.938 3.49787 106.549 3.35337C106.159 3.20198 105.664 3.1022 105.063 3.05403C104.468 3.00587 103.734 2.98178 102.859 2.98178H93.0298V15.5331H102.859ZM91.0619 17.1846V1.3303H102.859C104.062 1.3303 105.073 1.40255 105.893 1.54705C106.72 1.68468 107.4 1.89799 107.933 2.187C108.472 2.47601 108.886 2.83728 109.173 3.27079C109.467 3.70431 109.678 4.21696 109.808 4.80874C109.945 5.39364 110.023 6.05767 110.044 6.80084C110.071 7.53713 110.085 8.35599 110.085 9.25743C110.085 10.1589 110.071 10.9812 110.044 11.7243C110.023 12.4606 109.945 13.1247 109.808 13.7164C109.678 14.3013 109.467 14.8105 109.173 15.2441C108.886 15.6776 108.472 16.0388 107.933 16.3278C107.4 16.6169 106.72 16.8336 105.893 16.9781C105.073 17.1157 104.062 17.1846 102.859 17.1846H91.0619Z" stroke="white" stroke-width="0.6" mask="url(#path-1-outside-1_1374_3712)"/>
<path d="M130.43 6.28475C130.43 5.45901 130.341 4.8053 130.164 4.32361C129.986 3.84193 129.692 3.47723 129.282 3.2295C128.872 2.98178 128.332 2.82351 127.663 2.7547C126.993 2.68589 126.166 2.65149 125.182 2.65149H119.914C119.04 2.65149 118.302 2.67901 117.7 2.73406C117.106 2.78223 116.614 2.88545 116.224 3.04371C115.835 3.20198 115.534 3.42906 115.322 3.72495C115.111 4.02084 114.957 4.41307 114.861 4.90163C114.766 5.3902 114.711 5.9923 114.697 6.70795C114.684 7.41671 114.677 8.26653 114.677 9.25743C114.677 10.2483 114.684 11.1016 114.697 11.8172C114.718 12.526 114.776 13.1247 114.871 13.6132C114.967 14.1018 115.117 14.494 115.322 14.7899C115.534 15.0858 115.835 15.3129 116.224 15.4711C116.614 15.6294 117.106 15.7361 117.7 15.7911C118.302 15.8393 119.04 15.8634 119.914 15.8634H125.193C125.958 15.8634 126.617 15.8427 127.171 15.8014C127.724 15.7601 128.196 15.6845 128.585 15.5744C128.975 15.4643 129.289 15.3129 129.528 15.1202C129.767 14.9275 129.952 14.6867 130.082 14.3977C130.218 14.1018 130.311 13.7508 130.358 13.3449C130.406 12.932 130.43 12.4503 130.43 11.8998V10.9089H122.538V9.25743H132.398V11.8998C132.398 12.5604 132.357 13.1591 132.275 13.6958C132.193 14.2256 132.046 14.7004 131.834 15.1202C131.629 15.5331 131.353 15.8909 131.004 16.1937C130.656 16.4964 130.215 16.7476 129.682 16.9472C129.149 17.1398 128.513 17.2809 127.775 17.3703C127.038 17.4667 126.177 17.5149 125.193 17.5149H119.914C118.712 17.5149 117.697 17.4392 116.87 17.2878C116.05 17.1433 115.374 16.9231 114.841 16.6272C114.308 16.3244 113.894 15.9459 113.6 15.4918C113.314 15.0376 113.102 14.5043 112.965 13.8919C112.835 13.2795 112.76 12.5879 112.74 11.8172C112.719 11.0465 112.709 10.1933 112.709 9.25743C112.709 8.32158 112.719 7.46832 112.74 6.69762C112.76 5.92693 112.835 5.23537 112.965 4.62295C113.102 4.01052 113.314 3.47723 113.6 3.02307C113.894 2.56891 114.308 2.19389 114.841 1.89799C115.374 1.59522 116.05 1.37158 116.87 1.22708C117.697 1.07569 118.712 1 119.914 1H125.182C126.166 1 127.027 1.04817 127.765 1.1445C128.503 1.23396 129.139 1.37502 129.672 1.5677C130.205 1.75349 130.645 1.99089 130.994 2.2799C131.349 2.56891 131.629 2.90953 131.834 3.30176C132.046 3.69398 132.193 4.13782 132.275 4.63327C132.357 5.12871 132.398 5.67921 132.398 6.28475H130.43Z" stroke="white" stroke-width="0.6" mask="url(#path-1-outside-1_1374_3712)"/>
<path d="M137 17.1846H135.032V15.2028H137V17.1846Z" stroke="white" stroke-width="0.6" mask="url(#path-1-outside-1_1374_3712)"/>
</g>
<g id="STUDIOS">
<path d="M34.1907 27.7188C34.8696 27.7188 35.4518 27.7443 35.9374 27.7951C36.4229 27.846 36.8311 27.9222 37.162 28.024C37.4971 28.1218 37.7636 28.245 37.9612 28.3936C38.1589 28.5423 38.3114 28.7124 38.4188 28.9041C38.5263 29.0919 38.595 29.3031 38.6251 29.5379C38.6595 29.7726 38.6766 30.0268 38.6766 30.3007C38.6766 30.5745 38.6487 30.8327 38.5929 31.0752C38.5413 31.3138 38.4468 31.5329 38.3093 31.7324C38.1718 31.9319 37.9848 32.1099 37.7485 32.2664C37.5122 32.4229 37.2114 32.5559 36.8462 32.6654C36.4809 32.7749 36.0405 32.8571 35.5249 32.9118C35.0135 32.9705 34.4141 32.9999 33.7266 32.9999H32.0766C31.4578 32.9999 30.9164 32.9783 30.4524 32.9353C29.9883 32.8923 29.5887 32.8277 29.2535 32.7417C28.9184 32.6517 28.6412 32.5402 28.4221 32.4072C28.2029 32.2703 28.0268 32.1119 27.8936 31.9319C27.7647 31.7481 27.6744 31.5407 27.6229 31.3099C27.5713 31.0752 27.5455 30.817 27.5455 30.5354H28.783C28.783 30.8874 28.8389 31.1632 28.9506 31.3627C29.0623 31.5622 29.2471 31.7129 29.5049 31.8146C29.7627 31.9124 30.1 31.9749 30.5168 32.0023C30.9379 32.0258 31.4578 32.0375 32.0766 32.0375H33.7266C34.4485 32.0375 35.0479 32.0062 35.5249 31.9437C36.0018 31.8811 36.3821 31.7813 36.6657 31.6444C36.9493 31.5075 37.1491 31.3295 37.2651 31.1104C37.3811 30.8874 37.4391 30.6175 37.4391 30.3007C37.4391 29.9838 37.3983 29.7198 37.3167 29.5085C37.2393 29.2973 37.0825 29.1291 36.8462 29.0039C36.6141 28.8787 36.2854 28.7907 35.86 28.7398C35.4346 28.6851 34.8782 28.6577 34.1907 28.6577H32.4891C31.7328 28.6577 31.084 28.6323 30.5426 28.5814C30.0055 28.5305 29.5543 28.4582 29.1891 28.3643C28.8238 28.2665 28.5316 28.1472 28.3125 28.0064C28.0934 27.8616 27.9258 27.6973 27.8098 27.5135C27.698 27.3296 27.625 27.1262 27.5906 26.9032C27.5563 26.6763 27.5391 26.4318 27.5391 26.1697C27.5391 25.8959 27.5648 25.6416 27.6164 25.4069C27.6723 25.1722 27.7732 24.961 27.9193 24.7732C28.0654 24.5815 28.2652 24.4113 28.5188 24.2627C28.7723 24.114 29.0967 23.9908 29.492 23.893C29.8916 23.7913 30.3707 23.715 30.9293 23.6642C31.4879 23.6133 32.1453 23.5879 32.9016 23.5879H34.1391C34.7579 23.5879 35.2993 23.6094 35.7633 23.6524C36.2274 23.6916 36.627 23.7561 36.9622 23.8461C37.2973 23.9321 37.5745 24.0417 37.7936 24.1747C38.0171 24.3038 38.1932 24.4602 38.3221 24.6441C38.4554 24.824 38.5477 25.0294 38.5993 25.2602C38.6509 25.491 38.6766 25.7472 38.6766 26.0289H37.4391C37.4391 25.6768 37.3833 25.401 37.2716 25.2015C37.1598 25.002 36.9751 24.8534 36.7173 24.7556C36.4594 24.6539 36.12 24.5913 35.6989 24.5678C35.2778 24.5404 34.7579 24.5267 34.1391 24.5267H32.9016C32.0766 24.5267 31.3977 24.5541 30.8649 24.6089C30.3321 24.6597 29.911 24.7478 29.6016 24.8729C29.2922 24.9981 29.0774 25.1663 28.957 25.3776C28.8367 25.5888 28.7766 25.8529 28.7766 26.1697C28.7766 26.3653 28.7916 26.5394 28.8217 26.692C28.8518 26.8445 28.9119 26.9795 29.0022 27.0968C29.0967 27.2103 29.2277 27.3061 29.3953 27.3844C29.5629 27.4626 29.7842 27.5271 30.0592 27.578C30.3342 27.6289 30.6694 27.666 31.0647 27.6895C31.4643 27.709 31.9391 27.7188 32.4891 27.7188H34.1907Z" fill="white"/>
<path d="M51.4642 23.7757V24.7145H46.5142V32.7886H45.2767V24.7145H40.3267V23.7757H51.4642Z" fill="white"/>
<path d="M65.0833 23.7757V28.2821C65.0833 28.8142 65.0747 29.2992 65.0575 29.7374C65.0446 30.1755 64.9952 30.5686 64.9093 30.9168C64.8276 31.2649 64.6966 31.5681 64.5161 31.8263C64.3356 32.0845 64.0778 32.2996 63.7426 32.4718C63.4075 32.64 62.9799 32.7651 62.46 32.8473C61.9444 32.9334 61.3084 32.9764 60.5522 32.9764H57.6518C56.8955 32.9764 56.2574 32.9334 55.7375 32.8473C55.2219 32.7651 54.7965 32.64 54.4613 32.4718C54.1262 32.2996 53.8662 32.0845 53.6814 31.8263C53.501 31.5681 53.3678 31.2649 53.2818 30.9168C53.2002 30.5686 53.1529 30.1755 53.14 29.7374C53.1271 29.2992 53.1207 28.8142 53.1207 28.2821V23.7757H54.3582V28.2821C54.3582 28.8454 54.3625 29.3305 54.3711 29.7374C54.384 30.1403 54.4205 30.4806 54.4807 30.7584C54.5408 31.0361 54.6354 31.2591 54.7643 31.4273C54.8975 31.5955 55.0865 31.7246 55.3315 31.8146C55.5764 31.9045 55.8858 31.9652 56.2596 31.9965C56.6377 32.0238 57.1018 32.0375 57.6518 32.0375H60.5522C61.0979 32.0375 61.5598 32.0238 61.9379 31.9965C62.3161 31.9652 62.6255 31.9045 62.8661 31.8146C63.111 31.7246 63.3001 31.5955 63.4333 31.4273C63.5665 31.2591 63.6632 31.0361 63.7233 30.7584C63.7878 30.4806 63.8243 30.1403 63.8329 29.7374C63.8415 29.3305 63.8458 28.8454 63.8458 28.2821L63.8393 23.7757H65.0833Z" fill="white"/>
<path d="M74.5709 31.8498C75.1166 31.8498 75.5785 31.8361 75.9566 31.8087C76.3347 31.7813 76.6463 31.7265 76.8912 31.6444C77.1361 31.5583 77.3252 31.4351 77.4584 31.2747C77.5916 31.1143 77.6883 30.9031 77.7484 30.641C77.8129 30.375 77.8494 30.0503 77.858 29.6669C77.8709 29.2797 77.8773 28.8181 77.8773 28.2821C77.8773 27.7462 77.8709 27.2866 77.858 26.9032C77.8494 26.5159 77.8129 26.1912 77.7484 25.9291C77.6883 25.6631 77.5916 25.4499 77.4584 25.2896C77.3252 25.1292 77.1361 25.0079 76.8912 24.9258C76.6463 24.8397 76.3347 24.783 75.9566 24.7556C75.5828 24.7282 75.1209 24.7145 74.5709 24.7145H68.3898V31.8498H74.5709ZM67.1522 32.7886V23.7757H74.5709C75.3271 23.7757 75.963 23.8167 76.4787 23.8989C76.9986 23.9771 77.4261 24.0984 77.7613 24.2627C78.1008 24.427 78.3607 24.6324 78.5412 24.8788C78.726 25.1253 78.8592 25.4167 78.9408 25.7531C79.0267 26.0856 79.0762 26.4631 79.089 26.8856C79.1062 27.3042 79.1148 27.7697 79.1148 28.2821C79.1148 28.7946 79.1062 29.2621 79.089 29.6845C79.0762 30.1031 79.0267 30.4806 78.9408 30.817C78.8592 31.1495 78.726 31.439 78.5412 31.6855C78.3607 31.9319 78.1008 32.1373 77.7613 32.3016C77.4261 32.4659 76.9986 32.5891 76.4787 32.6713C75.963 32.7495 75.3271 32.7886 74.5709 32.7886H67.1522Z" fill="white"/>
<path d="M81.1773 23.7757H82.4149V32.7886H81.1773V23.7757Z" fill="white"/>
<path d="M92.7339 23.5879C93.4901 23.5879 94.1261 23.6309 94.6417 23.717C95.1616 23.7991 95.5892 23.9263 95.9243 24.0984C96.2595 24.2666 96.5173 24.4798 96.6978 24.738C96.8782 24.9962 97.0093 25.2993 97.0909 25.6475C97.1769 25.9956 97.2263 26.3888 97.2392 26.8269C97.2564 27.2651 97.265 27.7501 97.265 28.2821C97.265 28.8142 97.2564 29.2992 97.2392 29.7374C97.2263 30.1755 97.1769 30.5686 97.0909 30.9168C97.0093 31.2649 96.8782 31.5681 96.6978 31.8263C96.5173 32.0845 96.2595 32.2996 95.9243 32.4718C95.5892 32.64 95.1616 32.7651 94.6417 32.8473C94.1261 32.9334 93.4901 32.9764 92.7339 32.9764H89.0085C88.2522 32.9764 87.6141 32.9334 87.0942 32.8473C86.5786 32.7651 86.1532 32.64 85.818 32.4718C85.4828 32.2996 85.2229 32.0845 85.0381 31.8263C84.8576 31.5681 84.7244 31.2649 84.6385 30.9168C84.5569 30.5686 84.5096 30.1755 84.4967 29.7374C84.4838 29.2992 84.4774 28.8142 84.4774 28.2821C84.4774 27.7501 84.4838 27.2651 84.4967 26.8269C84.5096 26.3888 84.5569 25.9956 84.6385 25.6475C84.7244 25.2993 84.8576 24.9962 85.0381 24.738C85.2229 24.4798 85.4828 24.2666 85.818 24.0984C86.1532 23.9263 86.5786 23.7991 87.0942 23.717C87.6141 23.6309 88.2522 23.5879 89.0085 23.5879H92.7339ZM92.7339 32.0375C93.2796 32.0375 93.7393 32.0238 94.1132 31.9965C94.4913 31.9652 94.8028 31.9045 95.0478 31.8146C95.2927 31.7246 95.4817 31.5955 95.615 31.4273C95.7482 31.2591 95.8448 31.0361 95.905 30.7584C95.9651 30.4806 95.9995 30.1403 96.0081 29.7374C96.021 29.3305 96.0275 28.8454 96.0275 28.2821C96.0275 27.7188 96.021 27.2357 96.0081 26.8328C95.9995 26.426 95.9651 26.0837 95.905 25.8059C95.8448 25.5282 95.7482 25.3052 95.615 25.137C95.4817 24.9688 95.2927 24.8397 95.0478 24.7497C94.8071 24.6597 94.4978 24.6011 94.1196 24.5737C93.7458 24.5424 93.2839 24.5267 92.7339 24.5267H89.0085C88.4585 24.5267 87.9944 24.5424 87.6163 24.5737C87.2424 24.6011 86.933 24.6597 86.6881 24.7497C86.4432 24.8397 86.2541 24.9688 86.1209 25.137C85.9877 25.3052 85.891 25.5282 85.8309 25.8059C85.7707 26.0837 85.7364 26.426 85.7278 26.8328C85.7192 27.2357 85.7149 27.7188 85.7149 28.2821C85.7149 28.8454 85.7192 29.3305 85.7278 29.7374C85.7407 30.1403 85.7772 30.4806 85.8373 30.7584C85.8975 31.0361 85.992 31.2591 86.1209 31.4273C86.2541 31.5955 86.4432 31.7246 86.6881 31.8146C86.933 31.9045 87.2424 31.9652 87.6163 31.9965C87.9944 32.0238 88.4585 32.0375 89.0085 32.0375H92.7339Z" fill="white"/>
<path d="M105.567 27.7188C106.245 27.7188 106.828 27.7443 107.313 27.7951C107.799 27.846 108.207 27.9222 108.538 28.024C108.873 28.1218 109.139 28.245 109.337 28.3936C109.535 28.5423 109.687 28.7124 109.795 28.9041C109.902 29.0919 109.971 29.3031 110.001 29.5379C110.035 29.7726 110.053 30.0268 110.053 30.3007C110.053 30.5745 110.025 30.8327 109.969 31.0752C109.917 31.3138 109.823 31.5329 109.685 31.7324C109.548 31.9319 109.361 32.1099 109.124 32.2664C108.888 32.4229 108.587 32.5559 108.222 32.6654C107.857 32.7749 107.416 32.8571 106.901 32.9118C106.389 32.9705 105.79 32.9999 105.103 32.9999H103.453C102.834 32.9999 102.292 32.9783 101.828 32.9353C101.364 32.8923 100.965 32.8277 100.629 32.7417C100.294 32.6517 100.017 32.5402 99.798 32.4072C99.5788 32.2703 99.4027 32.1119 99.2695 31.9319C99.1406 31.7481 99.0503 31.5407 98.9988 31.3099C98.9472 31.0752 98.9214 30.817 98.9214 30.5354H100.159C100.159 30.8874 100.215 31.1632 100.327 31.3627C100.438 31.5622 100.623 31.7129 100.881 31.8146C101.139 31.9124 101.476 31.9749 101.893 32.0023C102.314 32.0258 102.834 32.0375 103.453 32.0375H105.103C105.824 32.0375 106.424 32.0062 106.901 31.9437C107.378 31.8811 107.758 31.7813 108.042 31.6444C108.325 31.5075 108.525 31.3295 108.641 31.1104C108.757 30.8874 108.815 30.6175 108.815 30.3007C108.815 29.9838 108.774 29.7198 108.693 29.5085C108.615 29.2973 108.458 29.1291 108.222 29.0039C107.99 28.8787 107.661 28.7907 107.236 28.7398C106.811 28.6851 106.254 28.6577 105.567 28.6577H103.865C103.109 28.6577 102.46 28.6323 101.919 28.5814C101.381 28.5305 100.93 28.4582 100.565 28.3643C100.2 28.2665 99.9076 28.1472 99.6884 28.0064C99.4693 27.8616 99.3017 27.6973 99.1857 27.5135C99.074 27.3296 99.0009 27.1262 98.9665 26.9032C98.9322 26.6763 98.915 26.4318 98.915 26.1697C98.915 25.8959 98.9408 25.6416 98.9923 25.4069C99.0482 25.1722 99.1492 24.961 99.2952 24.7732C99.4413 24.5815 99.6412 24.4113 99.8947 24.2627C100.148 24.114 100.473 23.9908 100.868 23.893C101.268 23.7913 101.747 23.715 102.305 23.6642C102.864 23.6133 103.521 23.5879 104.278 23.5879H105.515C106.134 23.5879 106.675 23.6094 107.139 23.6524C107.603 23.6916 108.003 23.7561 108.338 23.8461C108.673 23.9321 108.95 24.0417 109.17 24.1747C109.393 24.3038 109.569 24.4602 109.698 24.6441C109.831 24.824 109.924 25.0294 109.975 25.2602C110.027 25.491 110.053 25.7472 110.053 26.0289H108.815C108.815 25.6768 108.759 25.401 108.647 25.2015C108.536 25.002 108.351 24.8534 108.093 24.7556C107.835 24.6539 107.496 24.5913 107.075 24.5678C106.654 24.5404 106.134 24.5267 105.515 24.5267H104.278C103.453 24.5267 102.774 24.5541 102.241 24.6089C101.708 24.6597 101.287 24.7478 100.977 24.8729C100.668 24.9981 100.453 25.1663 100.333 25.3776C100.213 25.5888 100.152 25.8529 100.152 26.1697C100.152 26.3653 100.168 26.5394 100.198 26.692C100.228 26.8445 100.288 26.9795 100.378 27.0968C100.473 27.2103 100.604 27.3061 100.771 27.3844C100.939 27.4626 101.16 27.5271 101.435 27.578C101.71 27.6289 102.045 27.666 102.441 27.6895C102.84 27.709 103.315 27.7188 103.865 27.7188H105.567Z" fill="white"/>
</g>
</g>
</g>
</svg>
