<svg width="48" height="48" viewBox="0 0 48 48" fill="none" xmlns="http://www.w3.org/2000/svg">
<g id="Sparkle" clip-path="url(#clip0_1374_3638)">
<path id="Vector" d="M15.157 31.9633L5.47077 28.4008C5.18596 28.2956 4.9402 28.1057 4.76663 27.8566C4.59306 27.6076 4.5 27.3113 4.5 27.0076C4.5 26.704 4.59306 26.4077 4.76663 26.1587C4.9402 25.9096 5.18596 25.7197 5.47077 25.6145L15.157 22.052C15.3587 21.9782 15.5419 21.8612 15.6937 21.7094C15.8456 21.5575 15.9625 21.3743 16.0364 21.1726L19.5989 11.4864C19.704 11.2016 19.8939 10.9558 20.143 10.7823C20.3921 10.6087 20.6884 10.5156 20.992 10.5156C21.2956 10.5156 21.5919 10.6087 21.841 10.7823C22.0901 10.9558 22.28 11.2016 22.3851 11.4864L25.9476 21.1726C26.0215 21.3743 26.1384 21.5575 26.2903 21.7094C26.4422 21.8612 26.6253 21.9782 26.827 22.052L36.5133 25.6145C36.7981 25.7197 37.0438 25.9096 37.2174 26.1587C37.391 26.4077 37.484 26.704 37.484 27.0076C37.484 27.3113 37.391 27.6076 37.2174 27.8566C37.0438 28.1057 36.7981 28.2956 36.5133 28.4008L26.827 31.9633C26.6253 32.0371 26.4422 32.1541 26.2903 32.3059C26.1384 32.4578 26.0215 32.641 25.9476 32.8427L22.3851 42.5289C22.28 42.8137 22.0901 43.0595 21.841 43.233C21.5919 43.4066 21.2956 43.4997 20.992 43.4997C20.6884 43.4997 20.3921 43.4066 20.143 43.233C19.8939 43.0595 19.704 42.8137 19.5989 42.5289L16.0364 32.8427C15.9625 32.641 15.8456 32.4578 15.6937 32.3059C15.5419 32.1541 15.3587 32.0371 15.157 31.9633Z" stroke="white" stroke-linecap="round" stroke-linejoin="round"/>
<path id="Vector_2" d="M33 3V12" stroke="white" stroke-linecap="round" stroke-linejoin="round"/>
<path id="Vector_3" d="M42 13.5V19.5" stroke="white" stroke-linecap="round" stroke-linejoin="round"/>
<path id="Vector_4" d="M28.5 7.5H37.5" stroke="white" stroke-linecap="round" stroke-linejoin="round"/>
<path id="Vector_5" d="M39 16.5H45" stroke="white" stroke-linecap="round" stroke-linejoin="round"/>
</g>
<defs>
<clipPath id="clip0_1374_3638">
<rect width="48" height="48" fill="white"/>
</clipPath>
</defs>
</svg>
